<svg xmlns="http://www.w3.org/2000/svg" version="1.1" xmlns:xlink="http://www.w3.org/1999/xlink" xmlns:svgjs="http://svgjs.com/svgjs" width="1920" height="1080" preserveAspectRatio="none" viewBox="0 0 1920 1080">
    <g mask="url(&quot;#SvgjsMask1070&quot;)" fill="none">
        <rect width="1920" height="1080" x="0" y="0" fill="#101014"></rect>
        <path d="M0,899.871C162.967,870.841,268.674,724.191,406.269,632.167C540.703,542.257,717.7,504.631,799.541,365.138C883.842,221.451,885.071,40.552,848.758,-122.033C813.935,-277.948,714.689,-408.454,601.567,-521.261C494.495,-628.035,366.954,-713.655,219.952,-749.089C77.173,-783.505,-75.388,-774.508,-210.533,-717.011C-337.721,-662.899,-407.857,-535.565,-507.379,-439.647C-618.834,-332.228,-778.919,-265.339,-830.577,-119.419C-885.331,35.245,-844.939,206.275,-790.889,361.187C-732.986,527.142,-656.585,696.676,-511.315,795.621C-364.578,895.565,-174.788,931.007,0,899.871" fill="rgba(205, 150, 250, 0.64)"></path>
        <path d="M1920 1812.836C2087.032 1817.8400000000001 2263.326 1922.4569999999999 2410.249 1842.842 2557.485 1763.058 2601.343 1574.161 2653.8869999999997 1415.155 2701.873 1269.942 2735.799 1116.476 2699.36 967.9449999999999 2664.627 826.3679999999999 2557.002 720.783 2457.419 614.3240000000001 2361.373 511.64700000000005 2262.639 410.60299999999995 2131.236 360.595 1993.169 308.05100000000004 1837.56 275.75800000000004 1698.454 325.485 1561.8020000000001 374.33500000000004 1475.942 504.43399999999997 1393.9360000000001 624.163 1319.386 733.0070000000001 1284.816 856.716 1247.859 983.361 1204.722 1131.184 1123.4589999999998 1277.5819999999999 1159.575 1427.275 1198.086 1586.893 1301.8229999999999 1739.769 1448.272 1814.0230000000001 1591.417 1886.6019999999999 1759.578 1808.03 1920 1812.836" fill="rgba(111, 226, 226, 0.45)"></path>
    </g>
    <defs>
        <mask id="SvgjsMask1070">
            <rect width="1920" height="1080" fill="#ffffff"></rect>
        </mask>
    </defs>
</svg>