<svg id="visual" viewBox="0 0 900 600" width="900" height="600" xmlns="http://www.w3.org/2000/svg" xmlns:xlink="http://www.w3.org/1999/xlink" version="1.1"><rect x="0" y="0" width="900" height="600" fill="#101014"></rect><path d="M0 311L15 319.7C30 328.3 60 345.7 90 367.8C120 390 150 417 180 432.2C210 447.3 240 450.7 270 428.7C300 406.7 330 359.3 360 346.3C390 333.3 420 354.7 450 373.8C480 393 510 410 540 406.8C570 403.7 600 380.3 630 389.8C660 399.3 690 441.7 720 440.3C750 439 780 394 810 368.5C840 343 870 337 885 334L900 331L900 601L885 601C870 601 840 601 810 601C780 601 750 601 720 601C690 601 660 601 630 601C600 601 570 601 540 601C510 601 480 601 450 601C420 601 390 601 360 601C330 601 300 601 270 601C240 601 210 601 180 601C150 601 120 601 90 601C60 601 30 601 15 601L0 601Z" fill="rgba(244, 89, 213, .5)"></path><path d="M0 488L15 466.3C30 444.7 60 401.3 90 399C120 396.7 150 435.3 180 458.8C210 482.3 240 490.7 270 484C300 477.3 330 455.7 360 449C390 442.3 420 450.7 450 449.5C480 448.3 510 437.7 540 429.2C570 420.7 600 414.3 630 416.5C660 418.7 690 429.3 720 428.8C750 428.3 780 416.7 810 420.7C840 424.7 870 444.3 885 454.2L900 464L900 601L885 601C870 601 840 601 810 601C780 601 750 601 720 601C690 601 660 601 630 601C600 601 570 601 540 601C510 601 480 601 450 601C420 601 390 601 360 601C330 601 300 601 270 601C240 601 210 601 180 601C150 601 120 601 90 601C60 601 30 601 15 601L0 601Z" fill="rgba(229, 72, 217, .5)"></path><path d="M0 458L15 459.5C30 461 60 464 90 464.5C120 465 150 463 180 458.3C210 453.7 240 446.3 270 452.7C300 459 330 479 360 476.2C390 473.3 420 447.7 450 439.7C480 431.7 510 441.3 540 446.8C570 452.3 600 453.7 630 448.2C660 442.7 690 430.3 720 423.7C750 417 780 416 810 431C840 446 870 477 885 492.5L900 508L900 601L885 601C870 601 840 601 810 601C780 601 750 601 720 601C690 601 660 601 630 601C600 601 570 601 540 601C510 601 480 601 450 601C420 601 390 601 360 601C330 601 300 601 270 601C240 601 210 601 180 601C150 601 120 601 90 601C60 601 30 601 15 601L0 601Z" fill="rgba(211, 55, 222, .5)"></path><path d="M0 457L15 460.5C30 464 60 471 90 486C120 501 150 524 180 532.7C210 541.3 240 535.7 270 530C300 524.3 330 518.7 360 511.2C390 503.7 420 494.3 450 501C480 507.7 510 530.3 540 527.3C570 524.3 600 495.7 630 493.7C660 491.7 690 516.3 720 527.8C750 539.3 780 537.7 810 524.7C840 511.7 870 487.3 885 475.2L900 463L900 601L885 601C870 601 840 601 810 601C780 601 750 601 720 601C690 601 660 601 630 601C600 601 570 601 540 601C510 601 480 601 450 601C420 601 390 601 360 601C330 601 300 601 270 601C240 601 210 601 180 601C150 601 120 601 90 601C60 601 30 601 15 601L0 601Z" fill="rgba(189, 40, 228, .5)"></path><path d="M0 568L15 565C30 562 60 556 90 549.2C120 542.3 150 534.7 180 534.2C210 533.7 240 540.3 270 536.5C300 532.7 330 518.3 360 522.5C390 526.7 420 549.3 450 549.5C480 549.7 510 527.3 540 517.2C570 507 600 509 630 510.8C660 512.7 690 514.3 720 519C750 523.7 780 531.3 810 540.3C840 549.3 870 559.7 885 564.8L900 570L900 601L885 601C870 601 840 601 810 601C780 601 750 601 720 601C690 601 660 601 630 601C600 601 570 601 540 601C510 601 480 601 450 601C420 601 390 601 360 601C330 601 300 601 270 601C240 601 210 601 180 601C150 601 120 601 90 601C60 601 30 601 15 601L0 601Z" fill="rgba(163, 28, 235, .5)"></path></svg>